<mxfile host="app.diagrams.net" modified="2023-01-24T08:17:57.796Z" agent="5.0 (Windows NT 10.0; Win64; x64) AppleWebKit/537.36 (KHTML, like Gecko) Chrome/109.0.0.0 Safari/537.36" etag="Gx8QtLZXeZ9B0YPnXJzP" version="20.8.10" type="github">
  <diagram name="Page-1" id="5s8kRnR3LfFR92OnnYp0">
    <mxGraphModel dx="1257" dy="634" grid="1" gridSize="10" guides="1" tooltips="1" connect="1" arrows="1" fold="1" page="1" pageScale="1" pageWidth="850" pageHeight="1100" math="0" shadow="0">
      <root>
        <mxCell id="0" />
        <mxCell id="1" parent="0" />
        <mxCell id="cU_81-K2HkuorXMNshkS-1" style="edgeStyle=orthogonalEdgeStyle;rounded=0;orthogonalLoop=1;jettySize=auto;html=1;exitX=0.5;exitY=1;exitDx=0;exitDy=0;exitPerimeter=0;entryX=0.5;entryY=0;entryDx=0;entryDy=0;" edge="1" parent="1" source="cU_81-K2HkuorXMNshkS-2" target="cU_81-K2HkuorXMNshkS-4">
          <mxGeometry relative="1" as="geometry" />
        </mxCell>
        <mxCell id="cU_81-K2HkuorXMNshkS-2" value="Start" style="strokeWidth=2;html=1;shape=mxgraph.flowchart.start_2;whiteSpace=wrap;" vertex="1" parent="1">
          <mxGeometry x="360" y="40" width="80" height="80" as="geometry" />
        </mxCell>
        <mxCell id="cU_81-K2HkuorXMNshkS-3" style="edgeStyle=orthogonalEdgeStyle;rounded=0;orthogonalLoop=1;jettySize=auto;html=1;exitX=0.5;exitY=1;exitDx=0;exitDy=0;entryX=0.5;entryY=0;entryDx=0;entryDy=0;" edge="1" parent="1" source="cU_81-K2HkuorXMNshkS-4" target="cU_81-K2HkuorXMNshkS-6">
          <mxGeometry relative="1" as="geometry" />
        </mxCell>
        <mxCell id="cU_81-K2HkuorXMNshkS-4" value="Open App" style="rounded=1;whiteSpace=wrap;html=1;absoluteArcSize=1;arcSize=14;strokeWidth=2;" vertex="1" parent="1">
          <mxGeometry x="360" y="160" width="80" height="80" as="geometry" />
        </mxCell>
        <mxCell id="cU_81-K2HkuorXMNshkS-5" style="edgeStyle=orthogonalEdgeStyle;rounded=0;orthogonalLoop=1;jettySize=auto;html=1;exitX=0.5;exitY=1;exitDx=0;exitDy=0;entryX=0.5;entryY=0;entryDx=0;entryDy=0;" edge="1" parent="1" source="cU_81-K2HkuorXMNshkS-6" target="cU_81-K2HkuorXMNshkS-8">
          <mxGeometry relative="1" as="geometry" />
        </mxCell>
        <mxCell id="cU_81-K2HkuorXMNshkS-6" value="Input Email" style="rounded=1;whiteSpace=wrap;html=1;absoluteArcSize=1;arcSize=14;strokeWidth=2;" vertex="1" parent="1">
          <mxGeometry x="360" y="280" width="80" height="80" as="geometry" />
        </mxCell>
        <mxCell id="cU_81-K2HkuorXMNshkS-7" style="edgeStyle=orthogonalEdgeStyle;rounded=0;orthogonalLoop=1;jettySize=auto;html=1;exitX=0.5;exitY=1;exitDx=0;exitDy=0;entryX=0.5;entryY=0;entryDx=0;entryDy=0;" edge="1" parent="1" source="cU_81-K2HkuorXMNshkS-8" target="cU_81-K2HkuorXMNshkS-10">
          <mxGeometry relative="1" as="geometry" />
        </mxCell>
        <mxCell id="cU_81-K2HkuorXMNshkS-8" value="Add Biometric in App" style="rounded=1;whiteSpace=wrap;html=1;absoluteArcSize=1;arcSize=14;strokeWidth=2;" vertex="1" parent="1">
          <mxGeometry x="360" y="400" width="80" height="80" as="geometry" />
        </mxCell>
        <mxCell id="cU_81-K2HkuorXMNshkS-9" style="edgeStyle=orthogonalEdgeStyle;rounded=0;orthogonalLoop=1;jettySize=auto;html=1;exitX=0.5;exitY=1;exitDx=0;exitDy=0;entryX=0.5;entryY=0;entryDx=0;entryDy=0;" edge="1" parent="1" source="cU_81-K2HkuorXMNshkS-10" target="cU_81-K2HkuorXMNshkS-12">
          <mxGeometry relative="1" as="geometry" />
        </mxCell>
        <mxCell id="cU_81-K2HkuorXMNshkS-10" value="Create Recovery Kit" style="rounded=1;whiteSpace=wrap;html=1;absoluteArcSize=1;arcSize=14;strokeWidth=2;" vertex="1" parent="1">
          <mxGeometry x="360" y="520" width="80" height="80" as="geometry" />
        </mxCell>
        <mxCell id="cU_81-K2HkuorXMNshkS-11" style="edgeStyle=orthogonalEdgeStyle;rounded=0;orthogonalLoop=1;jettySize=auto;html=1;exitX=0.5;exitY=1;exitDx=0;exitDy=0;entryX=0.5;entryY=0;entryDx=0;entryDy=0;" edge="1" parent="1" source="cU_81-K2HkuorXMNshkS-12" target="cU_81-K2HkuorXMNshkS-14">
          <mxGeometry relative="1" as="geometry" />
        </mxCell>
        <mxCell id="cU_81-K2HkuorXMNshkS-12" value="Connect to Google Drive Account" style="rounded=1;whiteSpace=wrap;html=1;absoluteArcSize=1;arcSize=14;strokeWidth=2;" vertex="1" parent="1">
          <mxGeometry x="360" y="640" width="80" height="80" as="geometry" />
        </mxCell>
        <mxCell id="cU_81-K2HkuorXMNshkS-13" style="edgeStyle=orthogonalEdgeStyle;rounded=0;orthogonalLoop=1;jettySize=auto;html=1;exitX=0.5;exitY=1;exitDx=0;exitDy=0;entryX=0.5;entryY=0;entryDx=0;entryDy=0;entryPerimeter=0;" edge="1" parent="1" source="cU_81-K2HkuorXMNshkS-14" target="cU_81-K2HkuorXMNshkS-15">
          <mxGeometry relative="1" as="geometry" />
        </mxCell>
        <mxCell id="cU_81-K2HkuorXMNshkS-14" value="Explore the App" style="rounded=1;whiteSpace=wrap;html=1;absoluteArcSize=1;arcSize=14;strokeWidth=2;" vertex="1" parent="1">
          <mxGeometry x="360" y="760" width="80" height="80" as="geometry" />
        </mxCell>
        <mxCell id="cU_81-K2HkuorXMNshkS-15" value="End" style="strokeWidth=2;html=1;shape=mxgraph.flowchart.start_2;whiteSpace=wrap;" vertex="1" parent="1">
          <mxGeometry x="360" y="880" width="80" height="80" as="geometry" />
        </mxCell>
      </root>
    </mxGraphModel>
  </diagram>
</mxfile>
